# Blender v2.90.0 OBJ File: 'house.blend'
# www.blender.org
o Cube.001
v -8.109741 11.210569 9.785401
v -8.109741 9.210569 -8.545508
v -8.109741 11.210569 -9.785401
v 8.109741 9.210569 8.545508
v 8.109741 11.210569 9.785401
v 8.109741 9.210569 -8.545508
v 8.109741 11.210569 -9.785401
v -8.109741 15.821770 0.000000
v 8.109741 9.210569 0.000000
v 8.109741 15.821770 0.000000
v -8.109741 10.210569 -9.785401
v 8.109741 10.210569 -9.785401
v 8.109741 10.210569 9.785401
v 8.109741 14.701836 0.000000
v -8.109741 11.210569 9.785401
v -8.109741 15.821770 0.000000
v -8.109741 11.210569 -9.785401
v 8.109741 15.821770 0.000000
v 8.109741 11.210569 9.785401
v 8.109741 11.210569 -9.785401
v -8.109741 10.210569 -9.785401
v 8.109741 10.210569 -9.785401
v 8.109741 10.210569 9.785401
v 12.851549 15.821770 0.000000
v 12.851549 11.210569 9.785401
v 12.851549 11.210569 -9.785401
v 12.851549 10.210569 -9.785401
v 12.851549 10.210569 9.785401
v 12.851549 14.701836 0.000000
v -9.516779 11.210569 9.785401
v -9.516779 15.821770 0.000000
v -9.516779 11.210569 -9.785401
v -9.516779 10.210569 -9.785401
v -8.109741 10.137554 -8.545508
v 8.109741 10.137554 -8.545508
v 8.109741 10.137554 8.545508
v 8.109741 10.230171 0.000000
v 7.191454 1.626010 2.689927
v 7.191454 8.082764 2.689927
v 2.034931 1.626010 -0.967378
v 2.034931 8.082764 -0.967378
v -9.311094 1.648841 10.201297
v -9.311094 -0.351159 -10.201297
v -9.311094 1.648841 -10.201297
v 12.771775 -0.351159 10.201297
v 12.771775 1.648841 10.201297
v 12.771775 -0.351159 -10.201297
v 12.771775 1.648841 -10.201297
v 12.771775 1.648841 -3.032041
v 12.771775 1.648841 3.031661
v 10.890774 1.648841 3.009397
v 10.890774 1.648841 -3.049318
v 12.771775 0.391518 3.028239
v 12.771775 0.406781 -3.036444
v 12.771775 0.389474 2.041781
v 12.771775 0.398858 -3.032041
v 12.771775 0.398858 3.031661
v 10.890774 0.398858 3.009397
v 10.890774 0.398858 -3.049318
vt 0.625000 0.250000
vt 0.500000 0.500000
vt 0.500000 0.250000
vt 0.500000 0.250000
vt 0.625000 0.250000
vt 0.875000 0.625000
vt 0.625000 0.750000
vt 0.625000 0.625000
vt 0.875000 0.500000
vt 0.625000 0.500000
vt 0.437500 0.500000
vt 0.500000 0.625000
vt 0.437500 0.625000
vt 0.437500 0.750000
vt 0.875000 0.625000
vt 0.875000 0.750000
vt 0.875000 0.750000
vt 0.625000 0.500000
vt 0.500000 0.500000
vt 0.500000 0.500000
vt 0.625000 0.250000
vt 0.500000 0.750000
vt 0.625000 0.750000
vt 0.500000 0.625000
vt 0.625000 0.750000
vt 0.500000 0.750000
vt 0.625000 0.500000
vt 0.625000 0.625000
vt 0.625000 0.625000
vt 0.875000 0.500000
vt 0.875000 0.625000
vt 0.437500 0.250000
vt 0.375000 0.500000
vt 0.375000 0.250000
vt 0.375000 0.625000
vt 0.375000 0.750000
vt 0.625000 0.500000
vt 0.375000 0.750000
vt 0.375000 0.500000
vt 0.625000 0.250000
vt 0.375000 0.500000
vt 0.375000 0.250000
vt 0.467579 0.653335
vt 0.539358 0.653818
vt 0.375000 0.750000
vt 0.875000 0.500000
vt 0.646295 0.653366
vt 0.646295 0.596119
vt 0.625000 0.596361
vt 0.646295 0.653366
vt 0.625000 0.653678
vt 0.625000 0.653678
vt 0.646295 0.596119
vt 0.875000 0.750000
vt 0.500000 0.750000
vt 0.500000 0.250000
vt 0.875000 0.500000
vt 0.625000 0.750000
vt 0.625000 0.500000
vt 0.471425 0.594265
vt 0.625000 0.596361
vt 0.625000 0.750000
vt 0.875000 0.750000
vn 0.0000 0.0000 -1.0000
vn 0.0000 0.0000 1.0000
vn 0.0000 0.9046 0.4263
vn 0.0000 0.9046 -0.4263
vn 1.0000 0.0000 0.0000
vn 0.5785 0.0000 -0.8157
vn 0.0000 1.0000 0.0000
vn 0.0118 0.0000 -0.9999
s off
f 3/1/1 12/2/1 11/3/1
f 3/1/2 21/4/2 17/5/2
f 8/6/3 5/7/3 10/8/3
f 3/9/4 10/8/4 7/10/4
f 35/11/5 14/12/5 37/13/5
f 14/12/5 36/14/5 37/13/5
f 16/15/3 30/16/3 15/17/3
f 20/18/1 27/19/1 22/20/1
f 21/4/1 32/21/1 17/5/1
f 12/2/2 20/18/2 22/20/2
f 5/7/2 23/22/2 19/23/2
f 29/24/5 25/25/5 28/26/5
f 26/27/5 29/24/5 27/19/5
f 18/28/4 26/27/4 20/18/4
f 19/23/3 24/29/3 18/28/3
f 17/30/4 31/31/4 16/15/4
f 34/32/1 6/33/1 2/34/1
f 9/35/5 36/14/5 4/36/5
f 35/11/5 9/35/5 6/33/5
f 41/37/6 38/38/6 40/39/6
f 44/40/1 47/41/1 43/42/1
f 55/43/5 53/44/5 45/45/5
f 44/46/7 51/47/7 52/48/7
f 56/49/7 58/50/7 57/51/7
f 50/52/8 58/50/8 51/47/8
f 51/47/5 59/53/5 52/48/5
f 3/1/1 7/10/1 12/2/1
f 3/1/2 11/3/2 21/4/2
f 8/6/3 1/54/3 5/7/3
f 3/9/4 8/6/4 10/8/4
f 35/11/5 12/2/5 14/12/5
f 14/12/5 13/55/5 36/14/5
f 16/15/3 31/31/3 30/16/3
f 20/18/1 26/27/1 27/19/1
f 21/4/1 33/56/1 32/21/1
f 12/2/2 7/10/2 20/18/2
f 5/7/2 13/55/2 23/22/2
f 29/24/5 24/29/5 25/25/5
f 26/27/5 24/29/5 29/24/5
f 18/28/4 24/29/4 26/27/4
f 19/23/3 25/25/3 24/29/3
f 17/30/4 32/57/4 31/31/4
f 34/32/1 35/11/1 6/33/1
f 9/35/5 37/13/5 36/14/5
f 35/11/5 37/13/5 9/35/5
f 41/37/6 39/58/6 38/38/6
f 44/40/1 48/59/1 47/41/1
f 47/41/5 48/59/5 54/60/5
f 48/59/5 49/61/5 54/60/5
f 50/52/5 46/62/5 53/44/5
f 46/62/5 45/45/5 53/44/5
f 45/45/5 47/41/5 55/43/5
f 47/41/5 54/60/5 55/43/5
f 49/61/7 48/59/7 52/48/7
f 48/59/7 44/46/7 52/48/7
f 44/46/7 42/63/7 51/47/7
f 42/63/7 46/62/7 51/47/7
f 46/62/7 50/52/7 51/47/7
f 56/49/7 59/53/7 58/50/7
f 50/52/8 57/51/8 58/50/8
f 51/47/5 58/50/5 59/53/5
