# Blender v2.90.0 OBJ File: 'tree.blend'
# www.blender.org
o Cube
v 2.248569 -0.620334 -2.013557
v 1.757837 -0.778322 2.598006
v -1.077835 1.511329 -0.264785
v -1.853202 -0.790614 -1.745005
v -1.077835 1.511329 0.979711
v -2.165689 -0.619875 2.672042
v 0.067052 -0.566378 2.286291
v -0.019245 -0.309955 -1.461587
v -0.325515 1.511329 -0.593241
v -1.296406 -0.309955 0.328629
v -1.473218 1.943184 0.185948
v 0.823921 1.511329 0.357463
v 1.257916 -0.309955 0.328629
v -0.133683 3.392411 -0.558392
v -0.823001 2.762130 -0.813067
v -0.605354 2.845956 0.659972
v 0.069936 2.468949 0.499655
v -1.226256 3.478314 0.112693
v 0.316526 2.156774 -0.056576
v -1.185843 6.559776 0.419306
v -0.330469 6.555415 0.412971
v -0.991845 6.762577 0.599594
v -1.053169 6.555480 -0.621705
v -0.507104 4.686014 -0.584062
v -0.786596 3.489162 -0.683158
v -0.145463 6.555079 -0.482575
v -0.457682 4.887758 -3.121048
v -0.712449 5.001921 -2.418748
v -0.293958 6.012966 -3.348857
v -0.263700 6.029300 -2.957308
v -0.580219 6.050272 -3.005533
v -0.271485 4.087934 -2.210833
v -0.379932 4.764957 -1.914323
v -0.746332 4.604677 -3.064518
vt 0.375000 0.875000
vt 0.625000 1.000000
vt 0.375000 1.000000
vt 0.625000 0.250000
vt 0.625000 0.125000
vt 0.625000 0.319929
vt 0.625000 0.875000
vt 0.625000 1.000000
vt 0.625000 0.320442
vt 0.625000 0.406547
vt 0.625000 0.482046
vt 0.625000 0.512403
vt 0.625000 0.567617
vt 0.625000 0.444444
vt 0.625000 0.438209
vt 0.625000 0.462762
vt 0.625000 0.412230
vt 0.625000 0.411039
vt 0.625000 0.463953
vt 0.625000 0.463953
vt 0.625000 0.462762
vt 0.375000 0.125000
vt 0.625000 0.750000
vt 0.375000 0.750000
vt 0.625000 0.625000
vt 0.375000 0.500000
vt 0.625000 0.375000
vt 0.625000 0.000000
vt 0.375000 0.625000
vt 0.375000 0.375000
vt 0.625000 0.105644
vt 0.625000 0.875000
vt 0.625000 1.000000
vt 0.625000 -0.000094
vt 0.625000 0.750000
vt 0.625000 0.436753
vt 0.375000 0.250000
vt 0.375000 0.000000
vn 0.1256 0.5768 0.8072
vn -0.7939 -0.1011 -0.5996
vn -0.3983 0.3446 0.8501
vn 0.7545 0.0786 -0.6516
vn 0.7661 0.0183 -0.6424
vn 0.1921 0.0364 -0.9807
vn 0.1515 0.0243 -0.9882
vn -0.0987 0.4955 0.8630
vn 0.4748 -0.6107 -0.6337
vn 0.4754 0.8744 0.0973
vn -0.7936 -0.1003 -0.6001
vn -0.3718 0.3387 0.8643
vn 0.4383 0.4556 0.7748
vn 0.7768 0.5728 0.2616
vn 0.0597 0.6024 -0.7959
vn -0.9036 -0.0439 0.4262
vn 0.9100 0.2112 0.3569
vn 0.4782 -0.1753 -0.8606
vn 0.7858 0.6185 0.0012
vn -0.3811 -0.3050 -0.8728
vn -0.3753 0.3467 -0.8596
vn 0.9315 0.1307 0.3396
vn -0.8459 0.1604 0.5086
vn 0.2083 0.1619 -0.9646
vn -0.8737 0.1180 -0.4719
vn 0.8537 0.4651 0.2341
vn -0.6403 -0.0677 0.7652
vn -0.9916 0.0256 -0.1265
vn 0.2547 0.0454 0.9660
vn -0.9932 0.1149 -0.0186
vn 0.1519 0.0243 -0.9881
vn 0.9851 -0.1574 -0.0696
vn -0.9661 0.2136 0.1449
vn 0.0031 -0.1989 -0.9800
vn -0.2111 -0.8838 -0.4176
vn 0.9599 0.2778 0.0369
vn -0.9590 0.1850 0.2146
vn -0.0948 0.5050 0.8579
vn 0.9591 0.2311 -0.1636
vn -0.1643 0.4019 -0.9008
vn -0.9233 0.2227 -0.3130
vn 0.8015 0.5956 -0.0538
vn 0.5837 0.0903 -0.8069
vn -0.0129 0.5439 -0.8391
vn 0.9744 0.0997 0.2013
vn 0.8534 0.3177 -0.4133
vn -0.6923 -0.0572 0.7193
vn -0.9264 -0.0373 -0.3747
vn 0.2837 0.0428 0.9580
vn -0.7570 0.1132 -0.6435
vn 0.9086 -0.2065 0.3632
vn -0.9979 0.0639 0.0131
vn -0.0635 -0.9217 -0.3827
vn 0.9883 0.1140 0.1012
s off
f 7/1/1 5/2/1 6/3/1
f 3/4/2 11/5/2 15/6/2
f 5/2/3 16/7/3 18/8/3
f 15/6/4 23/9/4 25/10/4
f 14/11/5 26/12/5 19/13/5
f 24/14/6 25/10/6 23/9/6
f 24/14/7 23/9/7 26/12/7
f 28/15/8 30/16/8 31/17/8
f 34/18/9 27/19/9 32/20/9
f 24/14/10 33/21/10 28/15/10
f 3/4/11 10/22/11 11/5/11
f 7/1/12 16/7/12 5/2/12
f 7/1/13 17/23/13 16/7/13
f 2/24/14 12/25/14 17/23/14
f 1/26/15 9/27/15 19/13/15
f 10/22/16 5/28/16 11/5/16
f 1/26/17 12/25/17 13/29/17
f 19/13/18 15/6/18 14/11/18
f 12/25/19 19/13/19 17/23/19
f 9/27/20 3/4/20 15/6/20
f 8/30/21 3/4/21 9/27/21
f 26/12/22 17/23/22 19/13/22
f 11/5/23 5/28/23 18/31/23
f 15/6/24 25/10/24 14/11/24
f 15/6/25 11/5/25 18/31/25
f 28/15/26 32/20/26 27/19/26
f 18/8/27 22/32/27 20/33/27
f 23/9/28 18/31/28 20/34/28
f 21/35/29 16/7/29 17/23/29
f 31/17/30 34/18/30 28/15/30
f 24/14/31 26/12/31 14/11/31
f 30/16/32 27/19/32 29/36/32
f 28/15/33 25/10/33 24/14/33
f 27/19/34 34/18/34 29/36/34
f 32/20/35 25/10/35 34/18/35
f 32/20/36 24/14/36 14/11/36
f 3/4/37 4/37/37 10/22/37
f 7/1/38 2/24/38 17/23/38
f 2/24/39 13/29/39 12/25/39
f 1/26/40 8/30/40 9/27/40
f 10/22/41 6/38/41 5/28/41
f 1/26/42 19/13/42 12/25/42
f 19/13/43 9/27/43 15/6/43
f 8/30/44 4/37/44 3/4/44
f 26/12/45 21/35/45 17/23/45
f 28/15/46 33/21/46 32/20/46
f 18/8/47 16/7/47 22/32/47
f 23/9/48 15/6/48 18/31/48
f 21/35/49 22/32/49 16/7/49
f 31/17/50 29/36/50 34/18/50
f 30/16/51 28/15/51 27/19/51
f 28/15/52 34/18/52 25/10/52
f 32/20/53 14/11/53 25/10/53
f 32/20/54 33/21/54 24/14/54
