# Blender v2.90.0 OBJ File: 'tree.blend'
# www.blender.org
o Sphere
v -1.089580 8.362521 -3.447708
v -1.557763 6.420382 -4.541526
v -0.071326 6.348176 -4.490785
v -0.058971 5.828705 -4.003333
v 0.058345 8.023630 -4.061173
v 0.925869 5.864878 -2.766811
v 0.729706 8.051142 -1.982135
v 1.549674 5.882141 -2.665468
v -0.367686 8.389445 -0.732344
v 1.366395 8.057559 -1.416352
v 1.761309 7.114977 -2.607217
v 2.634278 5.740064 -2.228406
v 3.685095 6.521520 -0.972592
v 3.823999 5.735534 -0.477969
v 0.551727 8.382442 -0.103651
v 3.194824 6.494242 1.082409
v 2.199266 7.777947 0.985799
v 2.814606 5.897039 2.163130
v 0.471622 8.470631 1.243419
v 1.887183 5.946002 2.716864
v 2.770353 6.972376 2.076543
v 2.881376 6.286668 2.428462
v 0.064922 8.199976 2.434613
v -0.073520 7.174893 3.614223
v 0.189992 6.034289 3.087329
v 0.084757 7.731871 2.800622
v -0.747844 8.115990 2.407216
v -1.537779 7.738037 2.822002
v -1.453073 7.141327 3.598001
v -1.321015 6.047367 3.137736
v -1.560609 8.199977 2.434612
v -0.064780 8.880825 0.436804
v -3.382868 5.946002 2.716864
v -4.377808 6.286915 2.428054
v -1.317195 8.820070 1.016705
v -4.264243 6.973413 2.076775
v -4.314814 5.896683 2.159599
v -3.695274 7.777754 0.985611
v -4.691831 6.493474 1.080283
v -5.318920 5.736599 -0.473909
v -5.130296 6.596138 -0.499150
v -5.021720 6.492308 -1.343233
v -2.862067 8.057554 -1.416440
v -4.030873 5.780059 -2.188364
v -2.050114 8.402761 0.062742
v -3.079193 7.391229 -2.545887
v -1.430955 8.835807 0.255630
v -1.646683 8.288100 -0.855924
v -2.139587 7.629252 -4.041657
v -1.498168 5.786336 -4.021250
v -0.747843 5.821388 -4.215707
vt 0.692013 0.879837
vt 0.675230 0.690079
vt 0.762949 0.637705
vt 0.780049 0.437575
vt 0.720341 0.584799
vt 0.718750 0.438382
vt 0.648456 0.526446
vt 0.656771 0.377105
vt 0.623988 0.377506
vt 0.621454 0.706198
vt 0.555336 0.476277
vt 0.495697 0.939009
vt 0.558572 0.848765
vt 0.541027 0.377063
vt 0.464632 0.685498
vt 0.470171 0.469114
vt 0.409398 0.375000
vt 0.396582 0.845063
vt 0.402877 0.457658
vt 0.362909 0.375000
vt 0.310139 0.755611
vt 0.424096 0.562932
vt 0.282843 0.560953
vt 0.296815 0.681775
vt 0.138845 0.924807
vt 0.250054 0.762264
vt 0.217953 0.552137
vt 0.223810 0.375000
vt 0.207360 0.684021
vt 0.189861 0.755611
vt 0.075941 0.563368
vt 0.097060 0.457668
vt 0.090349 0.375000
vt 0.137091 0.375000
vt 0.046875 1.000000
vt 0.013328 0.937500
vt 0.004099 0.869638
vt 0.029837 0.469023
vt 0.000000 0.379750
vt 1.000000 0.500000
vt 0.968786 0.486521
vt 0.959110 0.377062
vt 0.953841 0.860711
vt 0.878542 0.706198
vt 1.000000 0.744339
vt 0.964747 0.937500
vt 0.832886 0.838448
vt 0.926046 0.467029
vt 0.875613 0.375000
vt 0.860781 0.586048
vt 0.782333 0.375000
vt 0.800316 0.557428
vt 0.765625 1.000000
vt 0.750000 0.375000
vt 0.687500 0.375000
vt 0.292990 0.375000
vt 0.035353 0.685492
vt 1.000000 0.562500
vt 0.718750 0.375000
vn 0.2217 0.9727 -0.0686
vn 0.0450 0.2449 -0.9685
vn 0.6833 0.1313 -0.7183
vn 0.3714 -0.0199 -0.9282
vn 0.5590 0.7303 -0.3927
vn 0.3039 0.8476 -0.4350
vn 0.8095 -0.2035 -0.5507
vn 0.5627 0.8206 -0.0996
vn 0.9254 0.3050 0.2248
vn 0.3521 0.9359 -0.0131
vn 0.9340 0.0462 0.3542
vn 0.6209 0.7837 -0.0144
vn 0.4022 -0.5614 0.7232
vn 0.4257 0.8401 0.3362
vn 0.4465 0.4647 0.7646
vn 0.2571 0.9197 0.2967
vn 0.3612 0.5838 0.7271
vn -0.1061 0.8689 0.4834
vn -0.0014 -0.3880 0.9217
vn 0.0106 0.8242 0.5663
vn 0.1074 0.9040 0.4138
vn -0.3626 0.5883 0.7228
vn -0.4426 0.4654 0.7665
vn -0.4024 -0.5621 0.7226
vn -0.4268 0.8532 0.2999
vn -0.0364 0.9990 0.0261
vn -0.5917 0.7993 0.1050
vn -0.9343 0.0487 0.3533
vn -0.9376 0.2138 0.2742
vn -0.3637 0.9313 -0.0177
vn -0.5675 0.8170 -0.1017
vn -0.4773 0.8214 -0.3121
vn -0.7416 -0.3597 -0.5663
vn -0.6010 0.7336 -0.3173
vn -0.4747 -0.5845 -0.6580
vn -0.1076 0.9796 -0.1695
vn -0.0290 0.8989 -0.4373
vn -0.4646 0.8824 -0.0745
vn -0.1378 0.7350 -0.6639
vn 0.0217 0.9196 -0.3921
vn -0.1659 -0.6348 -0.7546
vn -0.0801 0.9967 0.0114
vn 0.2377 0.9672 -0.0896
vn 0.0766 -0.9477 -0.3100
vn 0.1180 0.9798 -0.1616
vn 0.7324 -0.0939 -0.6744
vn 0.3255 -0.1611 0.9317
vn 0.5889 0.7829 -0.2005
vn 0.1323 0.9782 -0.1600
vn 0.4152 0.7753 -0.4760
vn 0.6704 0.2314 -0.7050
vn 0.7686 0.6105 0.1915
vn 0.7880 0.6142 0.0411
vn 0.9238 0.2823 0.2587
vn 0.9432 -0.2816 0.1762
vn 0.3668 0.9295 -0.0390
vn 0.3916 0.8261 0.4051
vn 0.1001 0.9438 0.3151
vn 0.0920 0.6425 0.7607
vn 0.3624 0.7347 0.5735
vn 0.0268 -0.4141 0.9098
vn -0.0897 0.6111 0.7864
vn -0.0264 0.7911 0.6112
vn -0.3256 -0.1611 0.9317
vn -0.3636 0.7189 0.5925
vn -0.3691 0.8296 0.4191
vn -0.7878 0.6144 0.0421
vn -0.9229 0.2851 0.2587
vn -0.9448 -0.2750 0.1780
vn -0.3987 0.9124 -0.0928
vn -0.7561 0.6051 0.2492
vn -0.9666 0.2077 -0.1499
vn -0.4981 0.8506 -0.1687
vn -0.6103 0.4218 -0.6705
vn -0.6773 -0.0738 -0.7320
vn -0.8219 -0.1708 -0.5435
vn 0.0770 0.8522 -0.5176
vn 0.0073 -0.4702 -0.8825
vn -0.4950 0.8510 -0.1755
vn -0.0714 0.3516 -0.9334
vn 0.6904 -0.4862 -0.5357
vn 0.1786 -0.3783 0.9083
vn 0.0118 0.7278 0.6857
vn -0.1645 -0.3993 0.9019
vn 0.2268 -0.6636 -0.7129
s off
f 9/1/1 7/2/1 1/3/1
f 2/4/2 5/5/2 3/6/2
f 5/5/3 11/7/3 3/6/3
f 8/8/4 11/7/4 12/9/4
f 11/7/5 10/10/5 13/11/5
f 9/1/6 32/12/6 15/13/6
f 12/9/7 13/11/7 14/14/7
f 10/10/8 17/15/8 13/11/8
f 13/11/9 16/16/9 14/14/9
f 10/10/10 15/13/10 17/15/10
f 14/14/11 16/16/11 18/17/11
f 32/12/12 19/18/12 15/13/12
f 18/17/13 22/19/13 20/20/13
f 19/18/14 23/21/14 21/22/14
f 21/22/15 24/23/15 22/19/15
f 32/12/16 23/21/16 19/18/16
f 23/21/17 26/24/17 21/22/17
f 35/25/18 27/26/18 23/21/18
f 24/23/19 29/27/19 30/28/19
f 26/24/20 28/29/20 24/23/20
f 27/26/21 35/25/21 31/30/21
f 28/29/22 31/30/22 36/31/22
f 29/27/23 36/31/23 34/32/23
f 34/32/24 37/33/24 33/34/24
f 31/30/25 35/25/25 36/31/25
f 35/25/26 32/35/26 47/36/26
f 35/25/27 47/36/27 45/37/27
f 39/38/28 40/39/28 37/33/28
f 39/40/29 41/41/29 40/42/29
f 45/43/30 43/44/30 38/45/30
f 38/45/31 43/44/31 41/41/31
f 47/46/32 48/47/32 45/43/32
f 42/48/33 44/49/33 40/42/33
f 43/44/34 46/50/34 41/41/34
f 2/4/35 50/51/35 44/49/35
f 45/43/36 48/47/36 43/44/36
f 47/46/37 9/1/37 48/47/37
f 46/50/38 48/47/38 1/3/38
f 49/52/39 1/3/39 5/5/39
f 47/46/40 32/53/40 9/1/40
f 2/4/41 51/54/41 50/51/41
f 48/47/42 9/1/42 1/3/42
f 1/3/43 7/2/43 5/5/43
f 6/55/44 3/6/44 8/8/44
f 9/1/45 15/13/45 7/2/45
f 3/6/46 11/7/46 8/8/46
f 24/23/47 20/20/47 22/19/47
f 11/7/48 5/5/48 7/2/48
f 7/2/49 15/13/49 10/10/49
f 7/2/50 10/10/50 11/7/50
f 12/9/51 11/7/51 13/11/51
f 13/11/52 17/15/52 16/16/52
f 16/16/53 17/15/53 21/22/53
f 16/16/54 21/22/54 22/19/54
f 16/16/55 22/19/55 18/17/55
f 15/13/56 19/18/56 17/15/56
f 17/15/57 19/18/57 21/22/57
f 32/12/58 35/25/58 23/21/58
f 28/29/59 27/26/59 31/30/59
f 21/22/60 26/24/60 24/23/60
f 25/56/61 24/23/61 30/28/61
f 26/24/62 23/21/62 27/26/62
f 24/23/63 28/29/63 29/27/63
f 33/34/64 29/27/64 34/32/64
f 29/27/65 28/29/65 36/31/65
f 36/31/66 35/25/66 38/57/66
f 36/31/67 38/57/67 39/38/67
f 34/32/68 36/31/68 39/38/68
f 37/33/69 34/32/69 39/38/69
f 38/57/70 35/25/70 45/37/70
f 39/40/71 38/58/71 41/41/71
f 41/41/72 42/48/72 40/42/72
f 41/41/73 46/50/73 42/48/73
f 42/48/74 46/50/74 2/4/74
f 42/48/75 2/4/75 44/49/75
f 46/50/76 49/52/76 2/4/76
f 43/44/77 48/47/77 46/50/77
f 3/6/78 51/54/78 2/4/78
f 49/52/79 46/50/79 1/3/79
f 49/52/80 5/5/80 2/4/80
f 6/55/81 4/59/81 3/6/81
f 24/23/82 25/56/82 20/20/82
f 28/29/83 26/24/83 27/26/83
f 33/34/84 30/28/84 29/27/84
f 3/6/85 4/59/85 51/54/85
